<svg xmlns="http://www.w3.org/2000/svg" viewBox="0 0 456.68 137.51"><defs><style>.cls-1{fill:#fff;}.cls-2{fill:none;stroke:#fff;stroke-miterlimit:10;stroke-width:6px;}</style></defs><g id="Layer_2" data-name="Layer 2"><g id="Layer_1-2" data-name="Layer 1"><path class="cls-1" d="M64.34,107.59H47.53v-63q0-15.84,14.89-15.85H71.3q8.78,0,12.49,5.77,3.48-5.77,12.49-5.77h8.88q14.9,0,14.89,15.85v63H103.24V43.12a2.41,2.41,0,0,0-.66-1.68,2.11,2.11,0,0,0-1.62-.72H94.48a2.08,2.08,0,0,0-1.62.72,2.37,2.37,0,0,0-.67,1.68v64.47H75.39V43.12a2.45,2.45,0,0,0-.66-1.68,2.15,2.15,0,0,0-1.63-.72H66.62a2.11,2.11,0,0,0-1.62.72,2.41,2.41,0,0,0-.66,1.68Z"/><path class="cls-1" d="M176.6,29.91,159.91,79.26v28.33H143.1V79.26L126.41,29.91h15.85l9.24,32.42,9.25-32.42Z"/><path class="cls-1" d="M224.86,93.43h18.37v14.16H208.05V29.91h16.81Z"/><path class="cls-1" d="M296.9,44.56V93q0,15.84-14.89,15.84H266q-14.88,0-14.89-15.84V44.56q0-15.84,14.89-15.85h16Q296.89,28.71,296.9,44.56ZM280.09,94.87V42.52a2.41,2.41,0,0,0-.66-1.68,2.11,2.11,0,0,0-1.62-.72h-7.57a2.11,2.11,0,0,0-1.62.72,2.41,2.41,0,0,0-.66,1.68V94.87a2.41,2.41,0,0,0,.66,1.68,2.11,2.11,0,0,0,1.62.72h7.57a2.11,2.11,0,0,0,1.62-.72A2.41,2.41,0,0,0,280.09,94.87Z"/><path class="cls-1" d="M332,76.74V64.37h22.22V93q0,15.84-14.89,15.84H324.15q-14.89,0-14.89-15.84V44.56q0-15.84,14.89-15.85h15.13q14.88,0,14.89,15.85v7.32h-16V42.52a2.41,2.41,0,0,0-.66-1.68,2.11,2.11,0,0,0-1.62-.72h-7.57a2.11,2.11,0,0,0-1.62.72,2.41,2.41,0,0,0-.66,1.68V94.87a2.41,2.41,0,0,0,.66,1.68,2.11,2.11,0,0,0,1.62.72h7.57a2.11,2.11,0,0,0,1.62-.72,2.41,2.41,0,0,0,.66-1.68V76.74Z"/><path class="cls-1" d="M409.15,44.56V93q0,15.84-14.88,15.84h-16q-14.9,0-14.89-15.84V44.56q0-15.84,14.89-15.85h16Q409.15,28.71,409.15,44.56ZM392.34,94.87V42.52a2.41,2.41,0,0,0-.66-1.68,2.11,2.11,0,0,0-1.62-.72H382.5a2.11,2.11,0,0,0-1.62.72,2.41,2.41,0,0,0-.66,1.68V94.87a2.41,2.41,0,0,0,.66,1.68,2.11,2.11,0,0,0,1.62.72h7.56a2.11,2.11,0,0,0,1.62-.72A2.41,2.41,0,0,0,392.34,94.87Z"/><rect class="cls-2" x="3" y="3" width="450.68" height="131.51" rx="36"/></g></g></svg>